#!OML:ASF E:\motion texture\Top Level 1\Subject 1\Session 1\male.ASF
:FULLY-SPECIFIED
:DEGREES
231
root 17.3415 17.6418 1.5531 480.865 -80.199 -471.537
lowerback 2.44296 0.0809152 6.14652
upperback 1.88202 0.145604 2.05555
thorax 0.582438 0.0927648 -1.33155
lowerneck -14.5018 -8.25679 -11.8879
upperneck 4.13028 -10.6591 17.261
head 5.26003 -4.61769 6.36157
rclavicle 8.24956e-015 -1.59028e-014
rhumerus 8.73673 24.9261 -68.7491
rradius 85.5983
rwrist 15.3553
rhand -28.4976 -18.6882
rfingers 7.12502
rthumb -1.86646 -48.6598
lclavicle 8.24956e-015 -1.59028e-014
lhumerus 0.751185 -23.6156 86.8583
lradius 76.5473
lwrist 12.4395
lhand -1.82523 34.6553
lfingers 7.12502
lthumb 23.841 63.1958
rfemur -14.8462 -0.647283 35.3646
rtibia 27.3502
rfoot -18.5472 -7.00786
rtoes 3.51418
lfemur -36.9325 0.879418 -5.52787
ltibia 26.3166
lfoot -5.44913 5.20226
ltoes -14.8082
232
root 17.1673 17.6354 1.56934 483.011 -80.083 -473.633
lowerback 2.29194 0.044525 6.21638
upperback 1.79023 0.0887009 2.17748
thorax 0.568736 0.0616325 -1.24394
lowerneck -14.6146 -8.20795 -11.7762
upperneck 4.41108 -10.6209 17.13
head 5.34317 -4.58921 6.30236
rclavicle 9.93923e-017 1.43125e-014
rhumerus 8.02888 24.0934 -68.2099
rradius 86.8275
rwrist 14.9372
rhand -28.2427 -18.6879
rfingers 7.12502
rthumb -1.62031 -48.6615
lclavicle 9.93923e-017 1.43125e-014
lhumerus -0.16248 -23.0544 86.5351
lradius 76.8171
lwrist 11.3859
lhand -1.5237 33.7874
lfingers 7.12502
lthumb 24.1302 62.2899
rfemur -14.2594 -0.502817 35.1727
rtibia 27.3779
rfoot -18.725 -6.93152
rtoes 3.08428
lfemur -36.7575 0.897874 -5.58697
ltibia 25.105
lfoot -5.28732 5.56768
ltoes -14.5612
233
root 16.9911 17.6289 1.58585 485.133 -79.9654 -475.712
lowerback 2.15037 0.00516696 6.2791
upperback 1.69708 0.0283664 2.29388
thorax 0.548196 0.0285304 -1.15813
lowerneck -14.7388 -8.15687 -11.6645
upperneck 4.69664 -10.5787 16.9943
head 5.42906 -4.55843 6.24202
rclavicle -3.72721e-015 -2.32578e-014
rhumerus 7.31737 23.2075 -67.6276
rradius 88.0937
rwrist 14.5359
rhand -28.0052 -18.7061
rfingers 7.12502
rthumb -1.39089 -48.6814
lclavicle -3.72721e-015 -2.32578e-014
lhumerus -1.10705 -22.4457 86.2085
lradius 77.0771
lwrist 10.3695
lhand -1.27369 32.9338
lfingers 7.12502
lthumb 24.3699 61.4042
rfemur -13.6968 -0.359088 34.9552
rtibia 27.4622
rfoot -18.8671 -6.82876
rtoes 2.67905
lfemur -36.5736 0.89579 -5.65803
ltibia 23.987
lfoot -5.11778 5.92945
ltoes -14.2727
234
root 16.8131 17.6221 1.60255 487.244 -79.8453 -477.787
lowerback 2.00578 -0.0379359 6.33428
upperback 1.60621 -0.0376502 2.40441
thorax 0.531456 -0.00731898 -1.0742
lowerneck -14.8519 -8.09958 -11.5515
upperneck 4.9707 -10.5271 16.8537
head 5.50813 -4.52437 6.18152
rclavicle 1.91827e-014 2.74323e-014
rhumerus 6.60587 22.2755 -67.0008
rradius 89.3945
rwrist 14.151
rhand -27.7784 -18.7445
rfingers 7.12502
rthumb -1.17188 -48.7211
lclavicle 1.91827e-014 2.74323e-014
lhumerus -2.08154 -21.7862 85.8747
lradius 77.3224
lwrist 9.3948
lhand -1.08218 32.0902
lfingers 7.12502
lthumb 24.5534 60.5358
rfemur -13.1629 -0.215114 34.7109
rtibia 27.61
rfoot -18.9707 -6.695
rtoes 2.29322
lfemur -36.381 0.873147 -5.74135
ltibia 22.9686
lfoot -4.94758 6.28126
ltoes -13.9298
235
root 16.6333 17.6152 1.61943 489.341 -79.7242 -479.855
lowerback 1.86523 -0.0842302 6.37989
upperback 1.51677 -0.107926 2.50897
thorax 0.513781 -0.0453384 -0.991175
lowerneck -14.965 -8.03829 -11.4342
upperneck 5.24015 -10.4691 16.7046
head 5.5844 -4.48784 6.1184
rclavicle -8.39865e-015 -1.96797e-014
rhumerus 5.89345 21.2971 -66.324
rradius 90.7287
rwrist 13.7809
rhand -27.5672 -18.8029
rfingers 7.12502
rthumb -0.967935 -48.7805
lclavicle -8.39865e-015 -1.96797e-014
lhumerus -3.08344 -21.0808 85.5327
lradius 77.548
lwrist 8.4605
lhand -0.942731 31.2556
lfingers 7.12502
lthumb 24.6871 59.683
rfemur -12.661 -0.0683674 34.438
rtibia 27.8239
rfoot -19.0313 -6.52752
rtoes 1.92869
lfemur -36.1803 0.830729 -5.84015
ltibia 22.0505
lfoot -4.77558 6.61701
ltoes -13.5336
236
root 16.4516 17.6083 1.63648 491.429 -79.6013 -481.921
lowerback 1.72881 -0.133627 6.41576
upperback 1.42973 -0.182342 2.60772
thorax 0.496144 -0.0854195 -0.908804
lowerneck -15.0796 -7.97287 -11.3145
upperneck 5.50491 -10.4043 16.5488
head 5.65826 -4.44855 6.0537
rclavicle -1.50828e-014 3.16068e-014
rhumerus 5.18265 20.275 -65.5926
rradius 92.0937
rwrist 13.4263
rhand -27.3741 -18.8796
rfingers 7.12502
rthumb -0.781381 -48.8579
lclavicle -1.50828e-014 3.16068e-014
lhumerus -4.11296 -20.3313 85.1809
lradius 77.7506
lwrist 7.56583
lhand -0.860065 30.4356
lfingers 7.12502
lthumb 24.7663 58.8521
rfemur -12.1938 0.0830851 34.1364
rtibia 28.107
rfoot -19.0429 -6.32701
rtoes 1.56779
lfemur -35.9715 0.77135 -5.9568
ltibia 21.2363
lfoot -4.60252 6.93854
ltoes -13.0899
237
root 16.2685 17.6014 1.65359 493.49 -79.4814 -483.968
lowerback 1.60317 -0.187048 6.43868
upperback 1.34212 -0.261268 2.70063
thorax 0.471767 -0.127951 -0.825296
lowerneck -15.2035 -7.90519 -11.1897
upperneck 5.7705 -10.3352 16.3829
head 5.73275 -4.40735 5.98529
rclavicle -1.55052e-014 1.45113e-014
rhumerus 4.4701 19.2109 -64.8014
rradius 93.4875
rwrist 13.0892
rhand -27.2056 -18.9677
rfingers 7.12502
rthumb -0.618625 -48.9465
lclavicle -1.55052e-014 1.45113e-014
lhumerus -5.16859 -19.5436 84.8184
lradius 77.9252
lwrist 6.70819
lhand -0.835062 29.6281
lfingers 7.12502
lthumb 24.7903 58.0413
rfemur -11.7695 0.23685 33.8048
rtibia 28.4636
rfoot -18.9987 -6.09617
rtoes 1.21202
lfemur -35.7612 0.695363 -6.09664
ltibia 20.5306
lfoot -4.43384 7.23992
ltoes -12.6138
238
root 16.0839 17.5945 1.67074 495.544 -79.3639 -486.016
lowerback 1.47769 -0.244104 6.44886
upperback 1.25996 -0.345407 2.78571
thorax 0.452806 -0.172836 -0.742866
lowerneck -15.3316 -7.83264 -11.0578
upperneck 6.02694 -10.2582 16.2091
head 5.80355 -4.36295 5.91411
rclavicle -1.717e-014 -1.11319e-014
rhumerus 3.76451 18.1054 -63.9469
rradius 94.9057
rwrist 12.768
rhand -27.0553 -19.0698
rfingers 7.12502
rthumb -0.473464 -49.049
lclavicle -1.717e-014 -1.11319e-014
lhumerus -6.23983 -18.7205 84.4364
lradius 78.0672
lwrist 5.88772
lhand -0.929704 28.8204
lfingers 7.12502
lthumb 24.6996 57.2461
rfemur -11.3908 0.393741 33.4418
rtibia 28.8963
rfoot -18.8896 -5.83607
rtoes 0.849504
lfemur -35.5474 0.608261 -6.26386
ltibia 19.9324
lfoot -4.26953 7.51642
ltoes -12.1006
239
root 15.8977 17.5877 1.68791 497.614 -79.2437 -488.092
lowerback 1.35623 -0.304126 6.44526
upperback 1.18026 -0.433294 2.86409
thorax 0.434151 -0.219519 -0.659787
lowerneck -15.4455 -7.75425 -10.9269
upperneck 6.27294 -10.1722 16.0315
head 5.86773 -4.31558 5.84341
rclavicle 3.37002e-014 4.60932e-015
rhumerus 3.06197 16.9696 -63.0265
rradius 96.3444
rwrist 12.4597
rhand -26.9243 -19.1819
rfingers 7.12502
rthumb -0.347001 -49.1614
lclavicle 3.37002e-014 4.60932e-015
lhumerus -7.33678 -17.862 84.0371
lradius 78.1728
lwrist 5.09639
lhand -1.08683 28.0366
lfingers 7.12502
lthumb 24.549 56.4828
rfemur -11.0556 0.558017 33.0482
rtibia 29.4074
rfoot -18.711 -5.54751
rtoes 0.486671
lfemur -35.3223 0.515897 -6.45925
ltibia 19.438
lfoot -4.11151 7.7679
ltoes -11.5509
240
root 15.7101 17.5812 1.70502 499.681 -79.1254 -490.177
lowerback 1.24248 -0.368527 6.42654
upperback 1.1035 -0.526425 2.93521
thorax 0.414192 -0.268752 -0.575849
lowerneck -15.5584 -7.67117 -10.7922
upperneck 6.51212 -10.0787 15.8467
head 5.9284 -4.26534 5.77083
rclavicle 3.78312e-015 1.56046e-014
rhumerus 2.3649 15.8035 -62.0354
rradius 97.7998
rwrist 12.1665
rhand -26.8184 -19.3049
rfingers 7.12502
rthumb -0.244713 -49.2845
lclavicle 3.78312e-015 1.56046e-014
lhumerus -8.45213 -16.9745 83.616
lradius 78.2379
lwrist 4.33417
lhand -1.29059 27.2821
lfingers 7.12502
lthumb 24.3537 55.7547
rfemur -10.7684 0.727632 32.6236
rtibia 29.9987
rfoot -18.456 -5.23734
rtoes 0.128291
lfemur -35.0903 0.419558 -6.68852
ltibia 19.0494
lfoot -3.9614 7.98635
ltoes -10.9695
241
root 15.5214 17.5749 1.72205 501.748 -79.0076 -492.273
lowerback 1.13612 -0.436408 6.39428
upperback 1.03054 -0.623593 2.99826
thorax 0.394089 -0.319857 -0.492766
lowerneck -15.6704 -7.58383 -10.6523
upperneck 6.74451 -9.97852 15.6542
head 5.98562 -4.21262 5.69579
rclavicle 1.44367e-014 2.54444e-014
rhumerus 1.67541 14.6068 -60.9715
rradius 99.266
rwrist 11.8857
rhand -26.7317 -19.4333
rfingers 7.12502
rthumb -0.160939 -49.4129
lclavicle 1.44367e-014 2.54444e-014
lhumerus -9.58128 -16.0655 83.1697
lradius 78.2581
lwrist 3.59811
lhand -1.52703 26.5626
lfingers 7.12502
lthumb 24.127 55.0655
rfemur -10.5315 0.903711 32.1696
rtibia 30.6717
rfoot -18.131 -4.91041
rtoes -0.241957
lfemur -34.8498 0.324416 -6.95332
ltibia 18.7639
lfoot -3.82067 8.16892
ltoes -10.3563
242
root 15.3315 17.5689 1.73891 503.815 -78.8922 -494.383
lowerback 1.0387 -0.508765 6.34601
upperback 0.960446 -0.725855 3.05311
thorax 0.372043 -0.373399 -0.409271
lowerneck -15.7808 -7.49191 -10.5083
upperneck 6.97081 -9.87119 15.4551
head 6.03963 -4.15723 5.61892
rclavicle 1.4064e-014 1.0635e-014
rhumerus 0.994565 13.3841 -59.8311
rradius 100.739
rwrist 11.6146
rhand -26.6631 -19.5693
rfingers 7.12502
rthumb -0.0946965 -49.549
lclavicle 1.4064e-014 1.0635e-014
lhumerus -10.7241 -15.1387 82.696
lradius 78.2305
lwrist 2.88615
lhand -1.80598 25.8639
lfingers 7.12502
lthumb 23.8595 54.402
rfemur -10.3481 1.08602 31.6852
rtibia 31.4292
rfoot -17.742 -4.57257
rtoes -0.633628
lfemur -34.6003 0.233502 -7.25831
ltibia 18.5786
lfoot -3.69108 8.31032
ltoes -9.71359
243
root 15.1406 17.5633 1.75554 505.875 -78.777 -496.499
lowerback 0.949741 -0.585538 6.28444
upperback 0.893604 -0.833163 3.1
thorax 0.348745 -0.429311 -0.326598
lowerneck -15.8888 -7.39522 -10.3598
upperneck 7.19123 -9.75663 15.2493
head 6.09035 -4.09913 5.54013
rclavicle 7.00716e-015 4.63168e-014
rhumerus 0.325884 12.1378 -58.6119
rradius 102.212
rwrist 11.3487
rhand -26.6199 -19.715
rfingers 7.12502
rthumb -0.0529436 -49.6947
lclavicle 7.00716e-015 4.63168e-014
lhumerus -11.8773 -14.1995 82.1921
lradius 78.1514
lwrist 2.19808
lhand -2.09191 25.2157
lfingers 7.12502
lthumb 23.5852 53.7894
rfemur -10.2196 1.27627 31.1742
rtibia 32.2726
rfoot -17.2925 -4.22709
rtoes -1.03786
lfemur -34.3402 0.151366 -7.60222
ltibia 18.4891
lfoot -3.57265 8.40695
ltoes -9.04995
244
root 14.9489 17.5582 1.77185 507.919 -78.6627 -498.612
lowerback 0.869003 -0.667174 6.2108
upperback 0.829777 -0.946094 3.13921
thorax 0.324111 -0.487874 -0.245114
lowerneck -15.9937 -7.29408 -10.2064
upperneck 7.40572 -9.63545 15.0368
head 6.13779 -4.03865 5.45927
rclavicle 3.37685e-014 1.72943e-014
rhumerus -0.328756 10.8695 -57.3116
rradius 103.682
rwrist 11.0838
rhand -26.5937 -19.8683
rfingers 7.12502
rthumb -0.0276217 -49.8481
lclavicle 3.37685e-014 1.72943e-014
lhumerus -13.0377 -13.2548 81.657
lradius 78.0169
lwrist 1.53749
lhand -2.4283 24.5932
lfingers 7.12502
lthumb 23.2625 53.208
rfemur -10.1485 1.47274 30.6396
rtibia 33.1992
rfoot -16.7819 -3.88201
rtoes -1.44566
lfemur -34.0691 0.0808739 -7.98499
ltibia 18.4897
lfoot -3.46642 8.45588
ltoes -8.36815
245
root 14.7564 17.5537 1.78781 509.936 -78.5489 -500.711
lowerback 0.795456 -0.754123 6.12749
upperback 0.768637 -1.06532 3.17119
thorax 0.298379 -0.549411 -0.165674
lowerneck -16.0943 -7.1879 -10.0498
upperneck 7.61468 -9.50687 14.8192
head 6.18197 -3.9754 5.37725
rclavicle -5.66536e-015 -2.60408e-014
rhumerus -0.964662 9.58052 -55.9291
rradius 105.14
rwrist 10.8158
rhand -26.5912 -20.0309
rfingers 7.12502
rthumb -0.0252955 -50.0106
lclavicle -5.66536e-015 -2.60408e-014
lhumerus -14.2033 -12.3078 81.0888
lradius 77.8249
lwrist 0.900953
lhand -2.79028 24.0111
lfingers 7.12502
lthumb 22.9152 52.6694
rfemur -10.1375 1.67379 30.0848
rtibia 34.2069
rfoot -16.213 -3.54213
rtoes -1.85427
lfemur -33.7866 0.0228667 -8.40415
ltibia 18.5753
lfoot -3.37618 8.45754
ltoes -7.6652
